<svg height="512" viewBox="0 0 512 512" width="512" xmlns="http://www.w3.org/2000/svg"><path d="m496 487.43v.57h-440a50.5 50.5 0 0 1 38.94-49.16l97.06-22.84v-48h-48a32 32 0 0 1 -32-32v-24h16a16 16 0 0 0 0-32h-16v-24h-27.7a12.313 12.313 0 0 1 -11-17.82l25.15-50.17c7.45-19.36 10.01-31.58 13.55-52.01 11.87-68.42 73.94-113.8 146.2-112.04 69.99 1.71 132.49 56.88 140.75 126.4a144.719 144.719 0 0 1 -6.86 64.8 415.151 415.151 0 0 0 -16.25 62.65 517.571 517.571 0 0 0 -7.84 91.8v46.39l89.74 22.44a50.5 50.5 0 0 1 38.26 48.99z" fill="#fec9a3"/><path d="m16 344v-16a40.477 40.477 0 0 0 37.25-24.562l6.617-15.438h-11.867v-16h24a8 8 0 0 1 7.352 11.156l-11.4 26.586a56.457 56.457 0 0 1 -51.952 34.258z" fill="#4db7e5"/><path d="m73.6 420.805a77.388 77.388 0 0 1 -9.2-76.719l8.242-19.234a7.723 7.723 0 0 1 7.688-4.844 8 8 0 0 1 7.25 5.461l8 24-15.172 5.062-1.352-4.039a61.332 61.332 0 0 0 7.344 60.708z" fill="#4db7e5"/><circle cx="164" cy="188" fill="#feb784" r="20"/><path d="m238.328 376h-46.328v-16h46.328a23.859 23.859 0 0 0 23.43-18.789l10.43-46.945 15.624 3.468-10.429 46.946a39.776 39.776 0 0 1 -39.055 31.32z" fill="#feb784"/><path d="m496 487.43v.57h-366.8c79.75-34.41 177.38-99.6 246.64-210.19a517.571 517.571 0 0 0 -7.84 91.8v46.39l89.74 22.44a50.5 50.5 0 0 1 38.26 48.99z" fill="#fec093"/></svg>