<svg id="Capa_1" enable-background="new 0 0 512 512" height="512" viewBox="0 0 512 512" width="512" xmlns="http://www.w3.org/2000/svg"><path d="m247.616 243.179 8.384-11.179 8.384 11.179c8.525 11.368 20.94 18.916 34.958 21.252l44.192 7.365c.835.139 1.665.207 2.484.207 7.2 0 13.555-5.2 14.778-12.537 1.362-8.171-4.158-15.9-12.33-17.262l-44.191-7.365c-6.372-1.062-12.015-4.493-15.89-9.66l-20.385-27.179c-2.833-3.777-7.279-6-12-6s-9.167 2.223-12 6l-20.384 27.179c-3.875 5.167-9.519 8.598-15.89 9.66l-44.192 7.365c-8.172 1.362-13.692 9.09-12.33 17.262 1.361 8.172 9.087 13.694 17.262 12.33l44.192-7.365c14.017-2.337 26.432-9.885 34.958-21.252z"/><path d="m455.724 389.535c-16.063-13.168-36.959-18.386-57.326-14.311l-29.779 5.956-17.619-28.449v-20.731h15c30.327 0 55-24.673 55-55 0-63.51-44.086-116.907-103.26-131.222 15-15.487 24.26-36.566 24.26-59.778 0-47.42-38.58-86-86-86s-86 38.58-86 86c0 23.212 9.26 44.291 24.26 59.778-59.174 14.315-103.26 67.712-103.26 131.222 0 30.327 24.673 55 55 55h15v20.731l-17.619 28.448-29.779-5.956c-20.153-4.032-40.89 1.056-56.889 13.956-16.003 12.904-25.372 32.082-25.705 52.616-.298 18.393 6.745 35.847 19.831 49.146 13.169 13.384 31.436 21.059 50.117 21.059h310.985c38.079 0 69.059-30.98 69.059-69.059 0-20.772-9.213-40.237-25.276-53.406zm-199.724-359.535c30.878 0 56 25.122 56 56s-25.122 56-56 56-56-25.122-56-56 25.121-56 56-56zm-135 247c0-57.897 47.103-105 105-105h60c57.897 0 105 47.103 105 105 0 13.785-11.215 25-25 25h-43.944c-20.617 0-40.581-6.045-57.735-17.481-2.52-1.679-5.421-2.519-8.321-2.519s-5.801.84-8.32 2.519c-17.155 11.436-37.119 17.481-57.736 17.481h-43.944c-13.785 0-25-11.215-25-25zm67.752 87.898c1.469-2.373 2.248-5.107 2.248-7.898v-25.017c22.917-.178 45.182-6.143 65-17.379 19.818 11.236 42.083 17.201 65 17.379v25.017c0 2.791.778 5.525 2.248 7.898l13.973 22.561-81.218 16.244-81.222-16.244zm-116.527 105.003c-7.401-7.522-11.386-17.331-11.219-27.62.188-11.606 5.487-22.449 14.54-29.748 9.047-7.295 20.773-10.173 32.174-7.892l73.715 14.743c-18.044 7.106-30.435 24.727-30.435 44.645 0 6.353 1.253 12.416 3.506 17.971h-53.549c-10.694 0-21.167-4.41-28.732-12.099zm339.716 12.099h-212.97c-9.909 0-17.971-8.062-17.971-17.971 0-8.537 6.075-15.947 14.446-17.622l208.835-41.767c2.567-.513 5.148-.766 7.711-.766 8.939 0 17.65 3.072 24.711 8.86 9.085 7.448 14.296 18.458 14.296 30.206.001 21.539-17.521 39.06-39.058 39.06z"/></svg>