<svg xmlns="http://www.w3.org/2000/svg" viewBox="0 0 73.05 95.07"><defs><style>.cls-1{fill:#ffb5a1;}.cls-2{fill:#de8466;}.cls-3{fill:#ac6952;}.cls-4{fill:none;stroke:#de8466;stroke-miterlimit:10;stroke-width:5px;}.cls-5{fill:#f15a24;}</style></defs><title>Recurso 5</title><g id="Capa_2" data-name="Capa 2"><g id="Capa_7" data-name="Capa 7"><ellipse class="cls-1" cx="7.34" cy="60.32" rx="5.23" ry="8.36"/><ellipse class="cls-1" cx="67.82" cy="60.32" rx="5.23" ry="8.36"/><rect class="cls-1" x="7.57" y="23.59" width="59.58" height="71.48" rx="29.79"/><ellipse class="cls-2" cx="37.95" cy="64.62" rx="6.11" ry="3.12"/><ellipse class="cls-3" cx="27.65" cy="50.31" rx="3.63" ry="7.12"/><ellipse class="cls-3" cx="46.77" cy="50.45" rx="3.63" ry="7.12"/><line class="cls-4" x1="29.33" y1="72.88" x2="45.97" y2="72.88"/><path class="cls-5" d="M7.56,20.56V41.13H30.65C17.9,41.13,7.56,31.92,7.56,20.56Z"/><path class="cls-5" d="M45,0C57.7,0,68,9.21,68,20.56V0Z"/><path class="cls-5" d="M45,0H30.65C17.9,0,7.56,9.21,7.56,20.56h0c0,11.36,10.34,20.57,23.09,20.57H45C57.7,41.13,68,31.92,68,20.56h0C68,9.21,57.7,0,45,0Z"/><path class="cls-5" d="M46.27,33v8.17H56.43C50.82,41.13,46.27,37.47,46.27,33Z"/><path class="cls-5" d="M62.72,24.8c5.61,0,10.16,3.65,10.16,8.16V24.8Z"/><path class="cls-5" d="M62.72,24.8H56.43c-5.61,0-10.16,3.65-10.16,8.16h0c0,4.51,4.55,8.17,10.16,8.17h6.29c5.61,0,10.16-3.66,10.16-8.17h0C72.88,28.45,68.33,24.8,62.72,24.8Z"/><path class="cls-5" d="M7.56,41.13h7.56V31.08C15.12,36.63,11.74,41.13,7.56,41.13Z"/><path class="cls-5" d="M0,24.86c0-5.54,3.38-10,7.56-10H0Z"/><path class="cls-5" d="M0,24.86v6.22c0,5.55,3.38,10.05,7.56,10.05h0c4.18,0,7.56-4.5,7.56-10.05V24.86c0-5.54-3.38-10-7.56-10h0C3.38,14.82,0,19.32,0,24.86Z"/><rect class="cls-5" x="5.75" y="38.1" width="5.44" height="19.96"/><rect class="cls-5" x="64.41" y="38.71" width="5.44" height="19.96"/><ellipse class="cls-2" cx="37.8" cy="59.1" rx="2.42" ry="8.3"/></g></g></svg>