<svg xmlns="http://www.w3.org/2000/svg" viewBox="0 0 81.65 110.08"><defs><style>.cls-1{fill:#ff7a00;}.cls-2{fill:#ffb5a1;}.cls-3,.cls-7{fill:none;stroke-miterlimit:10;stroke-width:5px;}.cls-3{stroke:#de8466;}.cls-4{fill:#de8466;}.cls-5{fill:#ed1c24;}.cls-6{fill:#29abe2;}.cls-7{stroke:#ac6952;}.cls-8{fill:#fff;}</style></defs><title>Recurso 6</title><g id="Capa_2" data-name="Capa 2"><g id="Capa_7" data-name="Capa 7"><rect class="cls-1" y="50.8" width="81.65" height="59.27"/><ellipse class="cls-1" cx="40.82" cy="51.41" rx="40.82" ry="51.41"/><ellipse class="cls-2" cx="10.67" cy="53.66" rx="5.23" ry="8.36"/><ellipse class="cls-2" cx="71.15" cy="53.66" rx="5.23" ry="8.36"/><ellipse class="cls-2" cx="41.13" cy="53.83" rx="30.85" ry="42.34"/><rect class="cls-1" x="18.14" y="10.28" width="46.57" height="21.17"/><rect class="cls-1" x="10.28" y="21.17" width="61.69" height="21.17"/><path class="cls-3" d="M35.47,76.63a8.19,8.19,0,0,1,12.91,0"/><ellipse class="cls-4" cx="41.63" cy="61.94" rx="4.22" ry="8.29"/><circle class="cls-5" cx="10.89" cy="62.9" r="3.02"/><circle class="cls-5" cx="71.37" cy="62.9" r="3.02"/><path class="cls-6" d="M68.37,36.1c.86,2.33,1.78,4.81.61,7.41-1,2.25-3.6,4.72-6.79,4.33-3.82-.47-6.19-4.78-5.56-7.41.59-2.47,3.54-2.32,4.94-5.56s-.29-5.74.62-6.18C63.33,28.15,66.77,31.8,68.37,36.1Z"/><line class="cls-7" x1="25.62" y1="48.13" x2="38.39" y2="50.39"/><line class="cls-7" x1="25.62" y1="52.39" x2="38.39" y2="50.13"/><line class="cls-7" x1="58.39" y1="48.13" x2="45.62" y2="50.39"/><line class="cls-7" x1="58.39" y1="52.39" x2="45.62" y2="50.13"/><path class="cls-8" d="M64.14,41.11a2.81,2.81,0,0,1-.88,2.56,3.29,3.29,0,0,1-3.48.11C58.27,42.89,58,41,58.62,40.26s1.82-.08,2.9-.87.76-2,1.2-1.92S64.14,39.38,64.14,41.11Z"/></g></g></svg>