<?xml version="1.0" encoding="UTF-8" standalone="no"?><!-- Generator: Gravit.io --><svg xmlns="http://www.w3.org/2000/svg" xmlns:xlink="http://www.w3.org/1999/xlink" style="isolation:isolate" viewBox="0 0 167.116 194.667" width="167.116pt" height="194.667pt"><defs><clipPath id="_clipPath_B1sjbykY6TpbBcoU5oFVWdEEEulpcCWz"><rect width="167.116" height="194.667"/></clipPath></defs><g clip-path="url(#_clipPath_B1sjbykY6TpbBcoU5oFVWdEEEulpcCWz)"><ellipse vector-effect="non-scaling-stroke" cx="16.246739984088773" cy="97.33333333333329" rx="16.246739984088777" ry="19.083333333333343" fill="rgb(255,181,161)"/><ellipse vector-effect="non-scaling-stroke" cx="150.8691354986875" cy="97.33333333333326" rx="16.246739984088777" ry="19.083333333333343" fill="rgb(255,181,161)"/><path d="M 84.788 0 L 84.788 0 C 122.617 0 153.329 31.435 153.329 70.153 L 153.329 124.513 C 153.329 163.232 122.617 194.667 84.788 194.667 L 84.788 194.667 C 46.959 194.667 16.247 163.232 16.247 124.513 L 16.247 70.153 C 16.247 31.435 46.959 0 84.788 0 Z" style="stroke:none;fill:#FFB5A1;stroke-miterlimit:10;"/><ellipse vector-effect="non-scaling-stroke" cx="84.78796530979284" cy="41.333333333333364" rx="51.13994312077577" ry="28.16666666666662" fill="rgb(255,255,255)"/><text transform="matrix(1,0,0,1,54.97,49.472)" style="font-family:'Abel';font-weight:400;font-size:20px;font-style:normal;fill:#000000;stroke:none;">A   B   C</text><path d=" M 75.371 90.563 C 72.36 94.612 66.781 97.333 60.401 97.333 C 53.49 97.333 47.518 94.139 44.733 89.524" fill="rgb(255,181,161)" vector-effect="non-scaling-stroke" stroke-width="1" stroke="rgb(0,0,0)" stroke-linejoin="miter" stroke-linecap="square" stroke-miterlimit="3"/><path d=" M 94.205 90.563 C 97.215 94.612 102.795 97.333 109.175 97.333 C 116.086 97.333 122.058 94.139 124.843 89.524" fill="rgb(255,181,161)" vector-effect="non-scaling-stroke" stroke-width="1" stroke="rgb(0,0,0)" stroke-linejoin="miter" stroke-linecap="square" stroke-miterlimit="3"/><ellipse vector-effect="non-scaling-stroke" cx="84.78796530979285" cy="124.91666666666663" rx="9.416666666666671" ry="8.5" fill="rgb(244,117,82)"/></g></svg>