<svg id="Capa_6" data-name="Capa 6" xmlns="http://www.w3.org/2000/svg" viewBox="0 0 1200 500"><defs><style>.cls-1{fill:#273036;}.cls-2{fill:#fff;}.cls-3{fill:#5dd0d5;}</style></defs><title>LOGO</title><rect class="cls-1" width="1200" height="500"/><rect class="cls-2" x="73.68" y="205.39" width="64.22" height="134.61"/><ellipse class="cls-2" cx="304.16" cy="217.15" rx="73.48" ry="71.15"/><rect class="cls-2" x="454.05" y="248.78" width="96.33" height="122.26"/><polygon class="cls-2" points="454.34 172 421 172 421 103.46 454.34 172"/><ellipse class="cls-3" cx="150.78" cy="105.32" rx="45.08" ry="25.01"/><rect class="cls-3" x="600" width="600" height="500"/><rect class="cls-2" x="838.68" y="218.39" width="64.22" height="134.61"/><ellipse class="cls-2" cx="912.16" cy="219.15" rx="73.48" ry="71.15"/><rect class="cls-2" x="880.05" y="196.78" width="96.33" height="122.26" rx="11.98"/><polygon class="cls-2" points="1009.72 262.85 976.38 262.85 976.38 194.31 1009.72 262.85"/><ellipse class="cls-3" cx="912.78" cy="198.32" rx="45.08" ry="25.01"/><path class="cls-2" d="M288.78,646.22a18.5,18.5,0,0,0,9.36,2.64c5.34,0,8.46-2.82,8.46-6.9,0-3.78-2.16-5.94-7.62-8-6.6-2.34-10.68-5.76-10.68-11.46,0-6.3,5.22-11,13.08-11a18.37,18.37,0,0,1,8.94,2l-1.44,4.26a16.11,16.11,0,0,0-7.68-1.92c-5.52,0-7.62,3.3-7.62,6.06,0,3.78,2.46,5.64,8,7.8,6.84,2.64,10.32,5.94,10.32,11.88,0,6.24-4.62,11.64-14.16,11.64-3.9,0-8.16-1.14-10.32-2.58Z" transform="translate(-105 -218)"/><path class="cls-2" d="M324.78,615.38a3.27,3.27,0,0,1-6.54,0,3.22,3.22,0,0,1,3.3-3.3A3.13,3.13,0,0,1,324.78,615.38Zm-5.88,37.2v-29h5.28v29Z" transform="translate(-105 -218)"/><path class="cls-2" d="M332.94,631.4c0-3-.06-5.46-.24-7.86h4.68l.3,4.8h.12a10.68,10.68,0,0,1,9.6-5.46c4,0,10.26,2.4,10.26,12.36v17.34h-5.28V635.84c0-4.68-1.74-8.58-6.72-8.58a7.5,7.5,0,0,0-7.08,5.4,7.59,7.59,0,0,0-.36,2.46v17.46h-5.28Z" transform="translate(-105 -218)"/><path class="cls-2" d="M384.36,616.58h-12.3v-4.44H402v4.44H389.64v36h-5.28Z" transform="translate(-105 -218)"/><path class="cls-2" d="M406.5,612.68a54.37,54.37,0,0,1,10-.84c5.58,0,9.18,1,11.7,3.3a10.07,10.07,0,0,1,3.18,7.68,10.62,10.62,0,0,1-7.62,10.32v.18c3.12,1.08,5,4,5.94,8.16,1.32,5.64,2.28,9.54,3.12,11.1h-5.4c-.66-1.14-1.56-4.62-2.7-9.66-1.2-5.58-3.36-7.68-8.1-7.86h-4.92v17.52H406.5Zm5.22,18.42h5.34c5.58,0,9.12-3.06,9.12-7.68,0-5.22-3.78-7.5-9.3-7.56a21.48,21.48,0,0,0-5.16.48Z" transform="translate(-105 -218)"/><path class="cls-2" d="M459.72,633.62H444V648.2h17.52v4.38H438.78V612.14h21.84v4.38H444V629.3h15.72Z" transform="translate(-105 -218)"/><path class="cls-2" d="M496.56,651.26a25.91,25.91,0,0,1-10.68,1.92c-11.4,0-20-7.2-20-20.46,0-12.66,8.58-21.24,21.12-21.24,5,0,8.22,1.08,9.6,1.8l-1.26,4.26a19,19,0,0,0-8.16-1.68c-9.48,0-15.78,6.06-15.78,16.68,0,9.9,5.7,16.26,15.54,16.26a20.89,20.89,0,0,0,8.52-1.68Z" transform="translate(-105 -218)"/><path class="cls-1" d="M931.76,313.26a25.91,25.91,0,0,1-10.68,1.92c-11.4,0-20-7.2-20-20.46,0-12.66,8.58-21.24,21.12-21.24,5,0,8.22,1.08,9.6,1.8l-1.26,4.26a19,19,0,0,0-8.16-1.68c-9.48,0-15.78,6.06-15.78,16.68,0,9.9,5.7,16.26,15.54,16.26a20.89,20.89,0,0,0,8.52-1.68Z" transform="translate(-105 -218)"/><path class="cls-1" d="M963.74,299.82c0,10.74-7.44,15.42-14.46,15.42-7.86,0-13.92-5.76-13.92-14.94,0-9.72,6.36-15.42,14.4-15.42C958.1,284.88,963.74,290.94,963.74,299.82Zm-23,.3c0,6.36,3.66,11.16,8.82,11.16s8.82-4.74,8.82-11.28c0-4.92-2.46-11.16-8.7-11.16S940.7,294.6,940.7,300.12Z" transform="translate(-105 -218)"/><path class="cls-1" d="M970.4,293.4c0-3-.06-5.46-.24-7.86h4.68l.3,4.8h.12a10.68,10.68,0,0,1,9.6-5.46c4,0,10.26,2.4,10.26,12.36v17.34h-5.28V297.84c0-4.68-1.74-8.58-6.72-8.58a7.5,7.5,0,0,0-7.08,5.4,7.59,7.59,0,0,0-.36,2.46v17.46H970.4Z" transform="translate(-105 -218)"/><path class="cls-1" d="M1021.82,278.58h-12.3v-4.44h29.94v4.44H1027.1v36h-5.28Z" transform="translate(-105 -218)"/><path class="cls-1" d="M1044,274.68a54.37,54.37,0,0,1,10-.84c5.58,0,9.18,1,11.7,3.3a10.07,10.07,0,0,1,3.18,7.68,10.62,10.62,0,0,1-7.62,10.32v.18c3.12,1.08,5,4,5.94,8.16,1.32,5.64,2.28,9.54,3.12,11.1h-5.4c-.66-1.14-1.56-4.62-2.7-9.66-1.2-5.58-3.36-7.68-8.1-7.86h-4.92v17.52H1044Zm5.22,18.42h5.34c5.58,0,9.12-3.06,9.12-7.68,0-5.22-3.78-7.5-9.3-7.56a21.48,21.48,0,0,0-5.16.48Z" transform="translate(-105 -218)"/><path class="cls-1" d="M1097.18,295.62h-15.72V310.2H1099v4.38h-22.74V274.14h21.84v4.38h-16.62V291.3h15.72Z" transform="translate(-105 -218)"/><path class="cls-1" d="M1134,313.26a25.91,25.91,0,0,1-10.68,1.92c-11.4,0-20-7.2-20-20.46,0-12.66,8.58-21.24,21.12-21.24,5,0,8.22,1.08,9.6,1.8l-1.26,4.26a19,19,0,0,0-8.16-1.68c-9.48,0-15.78,6.06-15.78,16.68,0,9.9,5.7,16.26,15.54,16.26a20.89,20.89,0,0,0,8.52-1.68Z" transform="translate(-105 -218)"/><path class="cls-1" d="M748.22,653.58V633.36h2.85l6.48,10.23a57.24,57.24,0,0,1,3.63,6.57l.06,0c-.24-2.7-.3-5.16-.3-8.31v-8.46h2.46v20.22h-2.64l-6.42-10.26a64.18,64.18,0,0,1-3.78-6.75l-.09,0c.15,2.55.21,5,.21,8.34v8.64Z" transform="translate(-105 -218)"/><path class="cls-1" d="M781,646.2c0,5.37-3.72,7.71-7.23,7.71-3.93,0-7-2.88-7-7.47,0-4.86,3.18-7.71,7.2-7.71C778.19,638.73,781,641.76,781,646.2Zm-11.52.15c0,3.18,1.83,5.58,4.41,5.58s4.41-2.37,4.41-5.64c0-2.46-1.23-5.58-4.35-5.58S769.49,643.59,769.49,646.35Z" transform="translate(-105 -218)"/><path class="cls-1" d="M803.24,632.28v17.55c0,1.29,0,2.76.12,3.75H801l-.12-2.52h-.06a5.37,5.37,0,0,1-4.95,2.85c-3.51,0-6.21-3-6.21-7.38,0-4.83,3-7.8,6.51-7.8a4.85,4.85,0,0,1,4.38,2.22h.06v-8.67ZM800.6,645a4.66,4.66,0,0,0-.12-1.11,3.88,3.88,0,0,0-3.81-3.06c-2.73,0-4.35,2.4-4.35,5.61,0,2.94,1.44,5.37,4.29,5.37a4,4,0,0,0,3.87-3.15,4.59,4.59,0,0,0,.12-1.14Z" transform="translate(-105 -218)"/><path class="cls-1" d="M809.09,646.8c.06,3.57,2.34,5,5,5a9.55,9.55,0,0,0,4-.75l.45,1.89a11.76,11.76,0,0,1-4.83.9c-4.47,0-7.14-2.94-7.14-7.32s2.58-7.83,6.81-7.83c4.74,0,6,4.17,6,6.84a10,10,0,0,1-.09,1.23Zm7.74-1.89c0-1.68-.69-4.29-3.66-4.29-2.67,0-3.84,2.46-4,4.29Z" transform="translate(-105 -218)"/><path class="cls-1" d="M819.11,657.78a4.27,4.27,0,0,0,2.88-1.11c.72-.84,1-2,1-5.46V639.06h2.64v13.17c0,2.82-.45,4.65-1.74,6a6.7,6.7,0,0,1-4.5,1.65Zm6.81-22.8a1.55,1.55,0,0,1-1.65,1.62,1.58,1.58,0,0,1-1.62-1.62,1.62,1.62,0,0,1,1.68-1.65A1.56,1.56,0,0,1,825.92,635Z" transform="translate(-105 -218)"/><path class="cls-1" d="M831.41,646.8c.06,3.57,2.34,5,5,5a9.55,9.55,0,0,0,4-.75l.45,1.89a11.76,11.76,0,0,1-4.83.9c-4.47,0-7.14-2.94-7.14-7.32s2.58-7.83,6.81-7.83c4.74,0,6,4.17,6,6.84a10,10,0,0,1-.09,1.23Zm7.74-1.89c0-1.68-.69-4.29-3.66-4.29-2.67,0-3.84,2.46-4,4.29Z" transform="translate(-105 -218)"/><path class="cls-1" d="M844.61,650.88a6.92,6.92,0,0,0,3.48,1c1.92,0,2.82-1,2.82-2.16s-.75-1.95-2.7-2.67c-2.61-.93-3.84-2.37-3.84-4.11,0-2.34,1.89-4.26,5-4.26a7.25,7.25,0,0,1,3.57.9l-.66,1.92a5.65,5.65,0,0,0-3-.84c-1.56,0-2.43.9-2.43,2s.87,1.74,2.76,2.46c2.52,1,3.81,2.22,3.81,4.38,0,2.55-2,4.35-5.43,4.35a8.28,8.28,0,0,1-4.08-1Z" transform="translate(-105 -218)"/><path class="cls-1" d="M873.11,651.33h-.06a5.17,5.17,0,0,1-4.74,2.58c-3.39,0-6.15-2.94-6.15-7.35,0-5.43,3.51-7.83,6.57-7.83a4.77,4.77,0,0,1,4.47,2.52h.06l.09-2.19h2.49c-.06,1.23-.09,2.49-.09,4v16.47h-2.64Zm0-6.39a4.5,4.5,0,0,0-.12-1.11,3.86,3.86,0,0,0-3.78-3c-2.73,0-4.38,2.31-4.38,5.58,0,2.88,1.38,5.4,4.29,5.4a3.93,3.93,0,0,0,3.78-2.88,4.43,4.43,0,0,0,.21-1.26Z" transform="translate(-105 -218)"/><path class="cls-1" d="M892.25,649.62c0,1.5,0,2.82.12,4H890l-.15-2.37h-.06a5.46,5.46,0,0,1-4.8,2.7c-2.28,0-5-1.26-5-6.36v-8.49h2.64v8c0,2.76.84,4.62,3.24,4.62a3.82,3.82,0,0,0,3.48-2.4,3.86,3.86,0,0,0,.24-1.35v-8.91h2.64Z" transform="translate(-105 -218)"/><path class="cls-1" d="M898.1,646.8c.06,3.57,2.34,5,5,5a9.55,9.55,0,0,0,4-.75l.45,1.89a11.76,11.76,0,0,1-4.83.9c-4.47,0-7.14-2.94-7.14-7.32s2.58-7.83,6.81-7.83c4.74,0,6,4.17,6,6.84a10,10,0,0,1-.09,1.23Zm7.74-1.89c0-1.68-.69-4.29-3.66-4.29-2.67,0-3.84,2.46-4,4.29Z" transform="translate(-105 -218)"/><path class="cls-1" d="M921.2,634.89v4.17H925v2H921.2v7.83c0,1.8.51,2.82,2,2.82a5.87,5.87,0,0,0,1.53-.18l.12,2a6.46,6.46,0,0,1-2.34.36,3.66,3.66,0,0,1-2.85-1.11c-.75-.78-1-2.07-1-3.78v-7.92h-2.25v-2h2.25v-3.48Z" transform="translate(-105 -218)"/><path class="cls-1" d="M940.1,649.62c0,1.5,0,2.82.12,4h-2.34l-.15-2.37h-.06a5.46,5.46,0,0,1-4.8,2.7c-2.28,0-5-1.26-5-6.36v-8.49h2.64v8c0,2.76.84,4.62,3.24,4.62a3.82,3.82,0,0,0,3.48-2.4,3.86,3.86,0,0,0,.24-1.35v-8.91h2.64Z" transform="translate(-105 -218)"/><path class="cls-1" d="M944.12,650.88a6.92,6.92,0,0,0,3.48,1c1.92,0,2.82-1,2.82-2.16s-.75-1.95-2.7-2.67c-2.61-.93-3.84-2.37-3.84-4.11,0-2.34,1.89-4.26,5-4.26a7.25,7.25,0,0,1,3.57.9l-.66,1.92a5.65,5.65,0,0,0-3-.84c-1.56,0-2.43.9-2.43,2s.87,1.74,2.76,2.46c2.52,1,3.81,2.22,3.81,4.38,0,2.55-2,4.35-5.43,4.35a8.28,8.28,0,0,1-4.08-1Z" transform="translate(-105 -218)"/><path class="cls-1" d="M964.19,646.8c.06,3.57,2.34,5,5,5a9.55,9.55,0,0,0,4-.75l.45,1.89a11.76,11.76,0,0,1-4.83.9c-4.47,0-7.14-2.94-7.14-7.32s2.58-7.83,6.81-7.83c4.74,0,6,4.17,6,6.84a10,10,0,0,1-.09,1.23Zm7.74-1.89c0-1.68-.69-4.29-3.66-4.29-2.67,0-3.84,2.46-4,4.29Z" transform="translate(-105 -218)"/><path class="cls-1" d="M977.75,643c0-1.5,0-2.73-.12-3.93h2.31l.12,2.34h.09a5,5,0,0,1,4.56-2.67,4.29,4.29,0,0,1,4.11,2.91h.06a6,6,0,0,1,1.62-1.89,5,5,0,0,1,3.21-1c1.92,0,4.77,1.26,4.77,6.3v8.55H995.9v-8.22c0-2.79-1-4.47-3.15-4.47a3.42,3.42,0,0,0-3.12,2.4,4.35,4.35,0,0,0-.21,1.32v9h-2.58v-8.7c0-2.31-1-4-3-4a3.93,3.93,0,0,0-3.48,3.93v8.76h-2.58Z" transform="translate(-105 -218)"/><path class="cls-1" d="M1015.91,646.2c0,5.37-3.72,7.71-7.23,7.71-3.93,0-7-2.88-7-7.47,0-4.86,3.18-7.71,7.2-7.71C1013.09,638.73,1015.91,641.76,1015.91,646.2Zm-11.52.15c0,3.18,1.83,5.58,4.41,5.58s4.41-2.37,4.41-5.64c0-2.46-1.23-5.58-4.35-5.58S1004.39,643.59,1004.39,646.35Z" transform="translate(-105 -218)"/><path class="cls-1" d="M1029.59,653a9.72,9.72,0,0,1-4.17.84c-4.38,0-7.23-3-7.23-7.41a7.38,7.38,0,0,1,7.8-7.71,8.82,8.82,0,0,1,3.66.75l-.6,2a6.12,6.12,0,0,0-3.06-.69c-3.33,0-5.13,2.46-5.13,5.49,0,3.36,2.16,5.43,5,5.43a7.5,7.5,0,0,0,3.24-.72Z" transform="translate(-105 -218)"/><path class="cls-1" d="M1035.62,635a1.64,1.64,0,0,1-3.27,0,1.61,1.61,0,0,1,1.65-1.65A1.57,1.57,0,0,1,1035.62,635Zm-2.94,18.6V639.06h2.64v14.52Z" transform="translate(-105 -218)"/><path class="cls-1" d="M1052.84,646.2c0,5.37-3.72,7.71-7.23,7.71-3.93,0-7-2.88-7-7.47,0-4.86,3.18-7.71,7.2-7.71C1050,638.73,1052.84,641.76,1052.84,646.2Zm-11.52.15c0,3.18,1.83,5.58,4.41,5.58s4.41-2.37,4.41-5.64c0-2.46-1.23-5.58-4.35-5.58S1041.32,643.59,1041.32,646.35Z" transform="translate(-105 -218)"/><path class="cls-1" d="M1056.17,643c0-1.5,0-2.73-.12-3.93h2.34l.15,2.4h.06a5.34,5.34,0,0,1,4.8-2.73c2,0,5.13,1.2,5.13,6.18v8.67h-2.64v-8.37c0-2.34-.87-4.29-3.36-4.29a3.75,3.75,0,0,0-3.54,2.7,3.8,3.8,0,0,0-.18,1.23v8.73h-2.64Z" transform="translate(-105 -218)"/><path class="cls-1" d="M1074.29,646.8c.06,3.57,2.34,5,5,5a9.55,9.55,0,0,0,4-.75l.45,1.89a11.76,11.76,0,0,1-4.83.9c-4.47,0-7.14-2.94-7.14-7.32s2.58-7.83,6.81-7.83c4.74,0,6,4.17,6,6.84a10,10,0,0,1-.09,1.23Zm7.74-1.89c0-1.68-.69-4.29-3.66-4.29-2.67,0-3.84,2.46-4,4.29Z" transform="translate(-105 -218)"/><path class="cls-1" d="M1087.49,650.88a6.92,6.92,0,0,0,3.48,1c1.92,0,2.82-1,2.82-2.16s-.75-1.95-2.7-2.67c-2.61-.93-3.84-2.37-3.84-4.11,0-2.34,1.89-4.26,5-4.26a7.25,7.25,0,0,1,3.57.9l-.66,1.92a5.65,5.65,0,0,0-3-.84c-1.56,0-2.43.9-2.43,2s.87,1.74,2.76,2.46c2.52,1,3.81,2.22,3.81,4.38,0,2.55-2,4.35-5.43,4.35a8.28,8.28,0,0,1-4.08-1Z" transform="translate(-105 -218)"/><path class="cls-1" d="M1109.27,634.89v4.17h3.78v2h-3.78v7.83c0,1.8.51,2.82,2,2.82a5.87,5.87,0,0,0,1.53-.18l.12,2a6.46,6.46,0,0,1-2.34.36,3.66,3.66,0,0,1-2.85-1.11c-.75-.78-1-2.07-1-3.78v-7.92h-2.25v-2h2.25v-3.48Z" transform="translate(-105 -218)"/><path class="cls-1" d="M1117.31,646.8c.06,3.57,2.34,5,5,5a9.55,9.55,0,0,0,4-.75l.45,1.89a11.76,11.76,0,0,1-4.83.9c-4.47,0-7.14-2.94-7.14-7.32s2.58-7.83,6.81-7.83c4.74,0,6,4.17,6,6.84a10,10,0,0,1-.09,1.23Zm7.74-1.89c0-1.68-.69-4.29-3.66-4.29-2.67,0-3.84,2.46-4.05,4.29Z" transform="translate(-105 -218)"/><path class="cls-1" d="M1149.77,632.28v17.55c0,1.29,0,2.76.12,3.75h-2.37l-.12-2.52h-.06a5.37,5.37,0,0,1-4.95,2.85c-3.51,0-6.21-3-6.21-7.38,0-4.83,3-7.8,6.51-7.8a4.85,4.85,0,0,1,4.38,2.22h.06v-8.67ZM1147.13,645a4.66,4.66,0,0,0-.12-1.11,3.88,3.88,0,0,0-3.81-3.06c-2.73,0-4.35,2.4-4.35,5.61,0,2.94,1.44,5.37,4.29,5.37a4,4,0,0,0,3.87-3.15,4.59,4.59,0,0,0,.12-1.14Z" transform="translate(-105 -218)"/><path class="cls-1" d="M1155.62,646.8c.06,3.57,2.34,5,5,5a9.55,9.55,0,0,0,4-.75l.45,1.89a11.76,11.76,0,0,1-4.83.9c-4.47,0-7.14-2.94-7.14-7.32s2.58-7.83,6.81-7.83c4.74,0,6,4.17,6,6.84a10,10,0,0,1-.09,1.23Zm7.74-1.89c0-1.68-.69-4.29-3.66-4.29-2.67,0-3.84,2.46-4,4.29Z" transform="translate(-105 -218)"/><path class="cls-1" d="M1168.82,650.88a6.92,6.92,0,0,0,3.48,1c1.92,0,2.82-1,2.82-2.16s-.75-1.95-2.7-2.67c-2.61-.93-3.84-2.37-3.84-4.11,0-2.34,1.89-4.26,5-4.26a7.25,7.25,0,0,1,3.57.9l-.66,1.92a5.65,5.65,0,0,0-3-.84c-1.56,0-2.43.9-2.43,2s.87,1.74,2.76,2.46c2.52,1,3.81,2.22,3.81,4.38,0,2.55-2,4.35-5.43,4.35a8.28,8.28,0,0,1-4.08-1Z" transform="translate(-105 -218)"/><path class="cls-1" d="M1189.1,653.58l-.21-1.83h-.09a5.41,5.41,0,0,1-4.44,2.16,4.14,4.14,0,0,1-4.44-4.17c0-3.51,3.12-5.43,8.73-5.4V644c0-1.2-.33-3.36-3.3-3.36a7.23,7.23,0,0,0-3.78,1.08L1181,640a9,9,0,0,1,4.77-1.29c4.44,0,5.52,3,5.52,5.94v5.43a20.44,20.44,0,0,0,.24,3.48Zm-.39-7.41c-2.88-.06-6.15.45-6.15,3.27a2.34,2.34,0,0,0,2.49,2.52,3.61,3.61,0,0,0,3.51-2.43,2.76,2.76,0,0,0,.15-.84Z" transform="translate(-105 -218)"/><path class="cls-1" d="M1195.52,643.59c0-1.71,0-3.18-.12-4.53h2.31l.09,2.85h.12a4.36,4.36,0,0,1,4-3.18,2.86,2.86,0,0,1,.75.09v2.49a4,4,0,0,0-.9-.09c-1.86,0-3.18,1.41-3.54,3.39a7.43,7.43,0,0,0-.12,1.23v7.74h-2.61Z" transform="translate(-105 -218)"/><path class="cls-1" d="M1205.45,643c0-1.5,0-2.73-.12-3.93h2.31l.12,2.34h.09a5,5,0,0,1,4.56-2.67,4.29,4.29,0,0,1,4.11,2.91h.06a6,6,0,0,1,1.62-1.89,5,5,0,0,1,3.21-1c1.92,0,4.77,1.26,4.77,6.3v8.55h-2.58v-8.22c0-2.79-1-4.47-3.15-4.47a3.42,3.42,0,0,0-3.12,2.4,4.35,4.35,0,0,0-.21,1.32v9h-2.58v-8.7c0-2.31-1-4-3-4a3.93,3.93,0,0,0-3.48,3.93v8.76h-2.58Z" transform="translate(-105 -218)"/><path class="cls-1" d="M1231.94,646.8c.06,3.57,2.34,5,5,5a9.55,9.55,0,0,0,4-.75l.45,1.89a11.76,11.76,0,0,1-4.83.9c-4.47,0-7.14-2.94-7.14-7.32s2.58-7.83,6.81-7.83c4.74,0,6,4.17,6,6.84a10,10,0,0,1-.09,1.23Zm7.74-1.89c0-1.68-.69-4.29-3.66-4.29-2.67,0-3.84,2.46-4,4.29Z" transform="translate(-105 -218)"/><path class="cls-1" d="M1245.5,643c0-1.5,0-2.73-.12-3.93h2.34l.15,2.4h.06a5.34,5.34,0,0,1,4.8-2.73c2,0,5.13,1.2,5.13,6.18v8.67h-2.64v-8.37c0-2.34-.87-4.29-3.36-4.29a3.75,3.75,0,0,0-3.54,2.7,3.8,3.8,0,0,0-.18,1.23v8.73h-2.64Z" transform="translate(-105 -218)"/></svg>