<svg height="511pt" viewBox="-6 0 511 511.99671" width="511pt" xmlns="http://www.w3.org/2000/svg"><path d="m469.863281 86.527344c6.015625-6.480469 9.722657-15.132813 9.722657-24.675782 0-20.058593-16.261719-36.316406-36.316407-36.316406-8.609375 0-16.507812 3.007813-22.730469 8.011719-11.714843-14.34375-29.535156-23.507813-49.5-23.507813-35.277343 0-63.878906 28.597657-63.878906 63.875 0 7.992188 1.484375 15.636719 4.164063 22.6875-14.699219 4.648438-25.359375 18.390626-25.359375 34.625 0 20.058594 16.261718 36.320313 36.320312 36.320313 6.789063 0 13.117188-1.894531 18.550782-5.136719 7.285156 14.570313 22.339843 24.582032 39.738281 24.582032 10.757812 0 20.621093-3.828126 28.308593-10.191407 7.742188 4.195313 16.609376 6.578125 26.035157 6.578125 30.226562 0 54.730469-24.503906 54.730469-54.734375 0-16.9375-7.699219-32.078125-19.785157-42.117187zm0 0" fill="#f0f0fa"/><path d="m115.042969 139.019531c-1.410157-2.476562-4.96875-2.367187-6.355469.117188-6.160156 11.0625-20.851562 24.996093-46.085938 24.996093v69.222657c0 31.976562 19.257813 59.484375 46.910157 71.84375v32.59375c0 18.082031 14.660156 32.738281 32.742187 32.738281 18.082032 0 32.738282-14.65625 32.738282-32.738281v-32.59375c27.65625-12.359375 46.914062-39.867188 46.914062-71.84375v-69.222657c-79.066406 0-100.558594-14.035156-106.863281-25.113281zm0 0" fill="#fcc89d"/><path d="m115.042969 139.019531c6.308593 11.078125 27.796875 25.113281 106.863281 25.113281v-16.921874c0-43.527344-35.660156-78.8125-79.652344-78.8125-43.992187 0-79.65625 35.285156-79.65625 78.8125v16.921874c25.234375 0 39.929688-13.933593 46.089844-24.996093 1.386719-2.484375 4.945312-2.59375 6.355469-.117188zm0 0" fill="#9b4c14"/><path d="m121.734375 501.960938h198.765625c33.632812 0 60.898438-27.265626 60.898438-60.898438v-96.300781s-110.023438.054687-110.058594.089843v88.855469c-10.175782-49.25-47.929688-88.429687-96.34375-100.808593v4.894531c0 18.082031-14.660156 32.742187-32.742188 32.742187-18.082031 0-32.738281-14.660156-32.738281-32.742187v-4.894531c-57.039063 14.617187-98.972656 66.679687-98.972656 129.105468v39.957032zm0 0" fill="#6289fa"/><path d="m326.722656 267.933594c-1.320312 0-2.625.066406-3.917968.171875v-31.039063c0-12.179687-9.871094-22.050781-22.046876-22.050781-12.175781 0-22.050781 9.871094-22.050781 22.050781v77.492188h.035157c-.011719.464844-.035157.925781-.035157 1.390625 0 10.839843 3.597657 20.835937 9.65625 28.875 20.914063-.023438 56.1875-.042969 76.765625-.054688 6.035156-8.027343 9.613282-18.003906 9.613282-28.820312-.003907-26.519531-21.5-48.015625-48.019532-48.015625zm0 0" fill="#fcc89d"/><path d="m483.160156 85.425781c6.40625-10.792969 8.140625-24.019531 4.746094-36.097656-2.777344-9.882813-8.898438-18.6875-17.152344-24.78125-8.609375-6.359375-19.316406-9.570313-30.007812-8.980469-3.828125.207032-7.632813.90625-11.292969 2.050782-1.75.550781-3.46875 1.203124-5.144531 1.953124-.5625.25-1.179688.726563-1.753906.910157-.648438.203125-.859376-.394531-1.292969-.796875-4.566407-4.242188-9.671875-7.902344-15.160157-10.863282-10.984374-5.925781-23.433593-8.957031-35.914062-8.81640575-10.570312.12109375-21.074219 2.52343775-30.632812 7.04296875-9.246094 4.367187-17.546876 10.671875-24.261719 18.382813-6.753907 7.757812-11.875 16.910156-14.90625 26.738281-3.527344 11.445312-4.207031 23.742187-1.976563 35.507812.164063.875.414063 1.75.546875 2.625.085938.578125.046875.78125-.4375 1.152344-1.164062.890625-2.546875 1.546875-3.738281 2.421875-2.46875 1.816406-4.757812 3.871094-6.820312 6.132812-3.792969 4.164063-6.808594 9.027344-8.859376 14.273438-4.039062 10.355469-4.222656 22.082031-.472656 32.546875 3.453125 9.640625 10.148438 17.992187 18.777344 23.5 9.414062 6.015625 20.90625 8.4375 31.949219 6.710937 1.816406-.285156 3.675781-.628906 5.433593-1.191406 1.121094-.359375 2.03125-1.035156 2.863282.082032 2.058594 2.757812 4.328125 5.257812 6.917968 7.546874 4.371094 3.863282 9.367188 7.007813 14.742188 9.277344 11.566406 4.878906 24.730469 5.597656 36.765625 2.019532 3.664063-1.09375 7.21875-2.566407 10.578125-4.398438 1.035156-.5625 2.496094-2.089844 3.746094-1.820312.628906.132812 1.203125.511718 1.792968.753906.855469.347656 1.746094.628906 2.625.917968 6.75 2.191407 13.851563 3.277344 20.949219 3.1875 10.53125-.136718 20.964844-2.871093 30.203125-7.9375 8.949219-4.910156 16.695313-11.941406 22.453125-20.367187 5.875-8.59375 9.621094-18.578125 10.828125-28.917969 1.414063-12.160156-.65625-24.648437-5.976562-35.675781-2.640625-5.476563-6.058594-10.570313-10.117188-15.089844zm-48.242187 87.914063c-5.839844 0-11.671875-1.152344-17.070313-3.378906-2.539062-1.046876-4.917968-2.761719-7.683594-3.121094-2.421874-.308594-4.921874.289062-6.9375 1.664062-2.308593 1.574219-4.378906 3.320313-6.886718 4.617188-2.371094 1.222656-4.882813 2.167968-7.472656 2.8125-4.988282 1.242187-10.246094 1.347656-15.28125.3125-9.257813-1.898438-17.417969-7.675782-22.335938-15.734375-1.273438-2.085938-2.140625-4.316407-4.089844-5.898438-2.046875-1.65625-4.710937-2.453125-7.328125-2.191406-2.839843.289063-5.050781 2.054687-7.621093 3.113281-2.703126 1.113282-5.597657 1.777344-8.519532 1.9375-8.941406.488282-17.679687-3.777344-22.855468-11.070312-5.25-7.402344-6.277344-17.253906-2.695313-25.59375 1.773437-4.136719 4.628906-7.78125 8.214844-10.503906 1.789062-1.355469 3.757812-2.480469 5.832031-3.339844 2.203125-.914063 4.367188-1.445313 6.132812-3.160156 1.90625-1.851563 3.015626-4.441407 3.042969-7.101563.027344-2.855469-1.398437-5.519531-2.160156-8.222656-1.558594-5.550781-2.210937-11.34375-1.941406-17.101563.824219-17.65625 10.601562-34.089844 25.644531-43.347656 16.253906-10.003906 37.207031-10.539062 53.960938-1.367188 4.429687 2.425782 8.511718 5.480469 12.097656 9.042969 1.730468 1.722657 3.15625 3.824219 4.988281 5.421875 1.71875 1.5 3.9375 2.367188 6.214844 2.453125 2.203125.085938 4.40625-.574219 6.203125-1.859375 2.160156-1.539062 4.207031-3.03125 6.667968-4.078125 4.675782-1.992187 9.921876-2.550781 14.917969-1.648437 8.597657 1.554687 16.027344 7.496094 19.472657 15.519531 4.027343 9.375 2.089843 20.363281-4.695313 27.9375-3.632813 4.058594-3.964844 10.160156.015625 14.160156 1.820312 1.828125 3.839844 3.402344 5.570312 5.339844 1.6875 1.894531 3.210938 3.933594 4.554688 6.089844 5.292969 8.492187 7.574219 18.691406 6.457031 28.632812-1.976562 17.585938-14.683593 32.738281-31.636719 37.804688-4.140624 1.234375-8.457031 1.859375-12.777343 1.859375zm0 0"/><path d="m244.824219 206.855469c1.628906 3.914062 5.683593 6.476562 9.929687 6.183593 4.171875-.292968 7.808594-3.203124 8.980469-7.214843 1.164063-3.976563-.328125-8.410157-3.660156-10.871094-3.242188-2.390625-7.675781-2.589844-11.136719-.542969-4.21875 2.496094-5.996094 7.925782-4.113281 12.445313zm0 0"/><path d="m269.328125 185.132812c1.597656 3.859376 5.578125 6.40625 9.757813 6.1875 4.136718-.214843 7.785156-3.015624 9.058593-6.957031 1.285157-3.988281-.117187-8.472656-3.4375-11.03125-3.367187-2.59375-8.152343-2.742187-11.683593-.386719-3.933594 2.625-5.5 7.816407-3.695313 12.1875zm0 0"/><path d="m397.078125 136.722656c-1.550781-3.75-5.332031-6.222656-9.386719-6.1875-4.210937.039063-8.035156 2.824219-9.386718 6.804688-1.363282 4.019531.011718 8.613281 3.390624 11.1875 3.320313 2.53125 7.957032 2.746094 11.484376.511718 4.085937-2.585937 5.742187-7.859374 3.898437-12.316406zm0 0"/><path d="m397.753906 54.539062c-.714844-3.683593-3.625-6.734374-7.234375-7.746093-6.550781-1.832031-12.730469 3.316406-12.75 9.933593v41.246094c.042969 3.4375 1.75 6.652344 4.671875 8.503906 1.597656 1.011719 3.472656 1.550782 5.367188 1.550782 3.78125 0 7.320312-2.199219 9-5.589844.816406-1.648438.945312-3.402344.945312-5.207031zm0 0"/><path d="m381.664062 334.773438c5.050782-14.742188 3.882813-31.277344-3.207031-45.148438-6.085937-11.910156-16.292969-21.535156-28.550781-26.894531-3.121094-1.367188-6.359375-2.453125-9.675781-3.246094-1.703125-.410156-3.429688-.738281-5.167969-.988281-.382812-.054688-2-.023438-2.21875-.28125-.035156-.039063.015625-.1875-.003906-.238282v-21.195312c-.0625-6.796875-2.3125-13.46875-6.386719-18.910156-8.257813-11.027344-23.058594-15.648438-36.109375-11.160156-12.847656 4.417968-21.621094 16.800781-21.675781 30.355468v67.667969c0 5.621094-.269531 11.398437.28125 16.992187.441406 4.453126 1.394531 8.855469 2.851562 13.089844-3.222656.140625-5.832031.957032-8 3.449219-1.640625 1.882813-2.457031 4.257813-2.480469 6.738281v38.585938c-7.972656-12.269532-17.839843-23.296875-29.140624-32.589844-11.335938-9.320312-24.101563-16.886719-37.742188-22.304688-1.894531-.753906-3.808594-1.464843-5.734375-2.136718-.757813-.261719-1.519531-.539063-2.292969-.757813-.347656-.097656-1.183594-.15625-1.378906-.519531v-13.335938c0-.808593.550781-.808593 1.273438-1.214843 11.847656-6.644531 22.144531-15.980469 29.890624-27.136719 7.859376-11.320312 13.367188-24.445312 15.261719-38.101562v-103.324219c-.722656-12.695313-3.882812-25.171875-9.875-36.386719-5.839843-10.933594-13.988281-20.601562-23.738281-28.25-9.851562-7.730469-21.304688-13.367188-33.441406-16.429688-12.65625-3.195312-25.996094-3.601562-38.824219-1.203124-12.414063 2.320312-24.292969 7.292968-34.667969 14.492187-10.144531 7.042969-18.8125 16.175781-25.289062 26.691406-6.59375 10.710938-11.082032 22.808594-12.621094 35.292969v103.105469c.953125 13.792969 4.980469 27.285156 12.097656 39.140625 6.960938 11.597656 16.570313 21.550781 27.890625 28.949218 1.457031.953126 2.941407 1.863282 4.453125 2.730469.433594.25 1.804688.726563 2.03125 1.132813.039063.066406-.015625.21875 0 .292968v13.429688c-.199218.578125-2.34375.945312-2.988281 1.164062-12.453125 4.25-24.292969 10.265626-35.074219 17.8125-10.601562 7.421876-20.164062 16.308594-28.363281 26.320313-8.242187 10.070313-15.101563 21.265625-20.335937 33.175781-5.335938 12.140625-8.976563 25.011719-10.808594 38.144532-1.199219 8.589843-1.402344 17.191406-1.402344 25.84375 0 8.664062-.003906 31.296874 0 33.945312.011719 5 3.316406 9.339844 8.386719 10.179688h35.105469c2.980468-.832032 5.464843-3.1875 6.613281-6.0625 2.484375-6.21875-1.957031-13.273438-8.628907-13.734376-3.027343-.210937-6.121093-.023437-9.152343-.023437-3.851563 0-7.699219 0-11.550781 0-.707032 0-.691407.109375-.691407-.582031 0-1.242188 0-19.824219 0-27.871094 0-11.289062 1.238281-22.476562 4.113281-33.410156 3.375-12.828125 8.816407-25.101563 16.066407-36.207032 7.148437-10.949218 16.046875-20.75 26.285156-28.886718 10.007813-7.949219 21.273437-14.292969 33.269531-18.707032 3.128906 15.542969 15.027344 28.28125 30.21875 32.675782 14.636719 4.234375 30.855469.019531 41.691406-10.648438 6.050782-5.957031 10.292969-13.691406 11.964844-22.027344 14.074219 5.183594 27.140625 13.011719 38.394532 22.921876 11.1875 9.851562 20.570312 21.734374 27.515624 34.921874 3.496094 6.636719 6.375 13.59375 8.578126 20.761719 1.128906 3.683594 1.949218 7.414063 2.847656 11.152344.816406 3.390625 3.367187 6.171875 6.6875 7.246094 6.460937 2.085937 13.074218-2.894531 13.160156-9.582031.015625-1.453126 0-71.199219 0-77.644532 0-.871094-.269531-1.261718.765625-1.226562h89.21875v86.207031c-.023437 10.75-3.425781 21.308594-9.777344 29.996094-6.664062 9.113281-16.324219 15.886719-27.1875 18.976562-5.035156 1.433594-10.1875 1.929688-15.402343 1.929688h-197.238282c-5.003906.0625-9.363281 3.769531-9.980468 8.789062-.738282 5.96875 4.003906 11.210938 9.960937 11.289063h196.886719c4.535156 0 9.046875-.210938 13.53125-.957032 11.238281-1.863281 21.953125-6.492187 31.039062-13.359374 8.957032-6.773438 16.273438-15.65625 21.175782-25.757813 4.667968-9.625 7.050781-20.230469 7.070312-30.917969v-96.15625c-.058594-5.425781-4.289062-9.933594-9.773438-10.074218zm-307.992187-199.402344c1.347656-7.640625 4.027344-15.035156 7.867187-21.78125 7.675782-13.476563 19.902344-24.148438 34.261719-29.996094 8.382813-3.414062 17.40625-5.15625 26.453125-5.15625 16.152344 0 32.035156 5.660156 44.507813 15.933594 12.113281 9.972656 20.667969 23.996094 23.769531 39.394531 1.351562 6.714844 1.335938 13.4375 1.335938 20.246094-11.035157-.179688-22.074219-.671875-33.066407-1.710938-10.566406-1-21.175781-2.464843-31.441406-5.238281-4.449219-1.199219-8.863281-2.652344-13.027344-4.648438-3.765625-1.804687-7.761719-4.144531-10.140625-7.683593-1.339844-1.992188-2.542968-3.792969-4.574218-5.179688-2.148438-1.46875-4.710938-2.300781-7.3125-2.371093-4.652344-.125-9.164063 2.207031-11.769532 6.0625-1.449218 2.144531-2.664062 4.347656-4.34375 6.339843-1.988281 2.359375-4.253906 4.476563-6.738281 6.308594-4.972656 3.660156-10.765625 6.078125-16.816406 7.257813.003906-5.964844-.007813-11.875 1.035156-17.777344zm90.683594 207.621094c-1.609375 6.832031-6.449219 12.660156-12.847657 15.53125-6.585937 2.949218-14.386718 2.539062-20.625-1.089844-6.9375-4.03125-11.328124-11.613282-11.328124-19.640625 0-5.15625 0-17.464844 0-18.464844 11.589843 3.015625 23.742187 3.613281 35.589843 1.957031 3.300781-.460937 6.585938-1.117187 9.8125-1.957031v11.8125c-.003906 3.9375.304688 7.996094-.601562 11.851563zm11.289062-49.324219c-14.488281 7.859375-31.710937 10.394531-47.84375 6.964843-14.179687-3.015624-27.246093-10.414062-37.066406-21.089843-9.164063-9.960938-15.296875-22.570313-17.328125-35.964844-.511719-3.382813-.765625-6.804687-.765625-10.222656v-59.796875c.222656-.335938 2.167969-.375 2.617187-.449219 12.773438-2.179687 24.710938-8.34375 33.683594-17.71875 1.171875-1.222656 2.292969-2.492187 3.355469-3.804687 5.796875 5.566406 13.179687 9.238281 20.652344 11.992187 7.800781 2.875 15.953125 4.71875 24.125 6.15625 16.929687 2.980469 34.242187 3.957031 51.40625 4.296875.546875.011719 3.175781-.230469 3.386719.136719.058593.101562 0 .421875 0 .539062v58.058594c0 11.488281-2.703126 22.789063-8.183594 32.910156-6.390625 11.796875-16.25 21.597657-28.039063 27.992188zm113.101563-33.503907c0-6.253906 0-21.652343 0-23.097656 0-7.1875 6.566406-12.890625 13.683594-11.894531 6.058593.847656 10.320312 6.15625 10.335937 12.167969.011719 3.796875 0 19.980468 0 20.816406 0 .320312.140625 1.03125 0 1.324219-.152344.316406-.746094.308593-1.121094.410156-1.242187.335937-2.476562.71875-3.695312 1.136719-2.3125.785156-4.570313 1.714844-6.765625 2.785156-4.472656 2.179688-8.667969 4.933594-12.4375 8.191406 0-3.949218 0-7.894531 0-11.839844zm73.402344 69.523438c-.457032 1.171875-.996094 2.304688-1.535157 3.441406-.320312.679688-.53125 1.503906-1.316406 1.625h-65.316406c-.832031-.199218-1.351563-2.027344-1.710938-2.796875-1.980469-4.238281-3.144531-8.84375-3.445312-13.511719-.550781-8.566406 1.847656-17.195312 6.769531-24.222656 9.386719-13.414062 26.859375-19.433594 42.503906-14.511718 13.71875 4.316406 24.101563 16.449218 26.195313 30.683593.269531 1.835938.40625 3.695313.40625 5.554688 0 4.6875-.851563 9.367187-2.550781 13.738281zm0 0"/><path d="m90.800781 498.125c-1.621093-3.917969-5.699219-6.460938-9.925781-6.171875-4.136719.285156-7.738281 3.125-8.945312 7.09375-1.199219 3.933594.1875 8.328125 3.445312 10.84375 3.339844 2.578125 8.039062 2.789063 11.585938.5 4.011718-2.589844 5.671874-7.835937 3.839843-12.265625zm0 0"/></svg>